Coordinates
version=1
nRows=12
nColumns=24
inDegrees=yes

Units are S.I. units (second, meters, Newtons, ...)
Angles are in degrees.

endheader
time	pelvis_tilt	pelvis_list	pelvis_rotation	pelvis_tx	pelvis_ty	pelvis_tz	hip_flexion_r	hip_adduction_r	hip_rotation_r	knee_angle_r	ankle_angle_r	subtalar_angle_r	mtp_angle_r	hip_flexion_l	hip_adduction_l	hip_rotation_l	knee_angle_l	ankle_angle_l	subtalar_angle_l	mtp_angle_l	lumbar_extension	lumbar_bending	lumbar_rotation
      3.90000000	     -1.77290539	      5.92441290	     -1.09621830	     -0.46772587	      0.94248417	      0.20596095	     20.87570275	     -4.05619593	     -0.27426626	    -58.43127579	     12.04660434	    -19.95714903	      0.00000000	     11.19631724	     12.52676577	      5.45835618	    -19.54767002	     16.71973191	    -13.76632599	      0.00000000	     -9.65167295	     -7.76449771	     -9.95423671
      3.90500000	     -1.70136109	      5.67868766	     -0.85193952	     -0.46097975	      0.94368470	      0.20555188	     21.27751021	     -3.74321212	     -0.24593980	    -57.17291085	     12.38403498	    -19.53531937	      0.00000000	     10.29397090	     12.34704253	      6.04312905	    -18.94010364	     16.64104751	    -14.09704175	      0.00000000	     -9.79152365	     -7.42323510	    -10.15832853
      3.91000000	     -1.63988319	      5.45057000	     -0.60366092	     -0.45423844	      0.94476403	      0.20514059	     21.66644849	     -3.45049194	     -0.19359405	    -55.84687553	     12.67224238	    -19.14653585	      0.00000000	      9.41203316	     12.17588109	      6.61536074	    -18.33965764	     16.55783075	    -14.43637724	      0.00000000	     -9.91724355	     -7.09939577	    -10.36385037
      3.91500000	     -1.58158108	      5.24367044	     -0.35151232	     -0.44749725	      0.94572818	      0.20475324	     22.03469923	     -3.18084091	     -0.11646383	    -54.45510218	     12.91013488	    -18.79766037	      0.00000000	      8.54201786	     12.01649147	      7.18284676	    -17.74625409	     16.47067103	    -14.79432812	      0.00000000	    -10.03461566	     -6.80601195	    -10.58108471
      3.92000000	     -1.53090316	      5.05627267	     -0.09828568	     -0.44075737	      0.94657046	      0.20437401	     22.38795408	     -2.93332108	     -0.00893522	    -53.00173221	     13.09946580	    -18.48705143	      0.00000000	      7.68821949	     11.86792626	      7.74010067	    -17.15896368	     16.37970935	    -15.16380088	      0.00000000	    -10.14146616	     -6.53383073	    -10.80175743
      3.92500000	     -1.48848890	      4.88843495	      0.15335432	     -0.43401678	      0.94729087	      0.20400555	     22.72653992	     -2.70792122	      0.13169766	    -51.48805996	     13.24177776	    -18.21213181	      0.00000000	      6.85213473	     11.73026636	      8.28386792	    -16.58038317	     16.29001431	    -15.54016867	      0.00000000	    -10.23455038	     -6.28397591	    -11.02664859
      3.93000000	     -1.45286661	      4.73835847	      0.40420445	     -0.42728517	      0.94789004	      0.20365874	     23.04970203	     -2.50441332	      0.30249891	    -49.91803323	     13.33984886	    -17.96621938	      0.00000000	      6.03164684	     11.60183391	      8.81662293	    -16.00857541	     16.19903806	    -15.93006539	      0.00000000	    -10.31961779	     -6.05824783	    -11.25524669
      3.93500000	     -1.42225242	      4.60737918	      0.65407930	     -0.42053799	      0.94837388	      0.20331708	     23.35326623	     -2.32725665	      0.49971194	    -48.29357138	     13.39665969	    -17.74725884	      0.00000000	      5.22221598	     11.48611885	      9.34251003	    -15.44476584	     16.10403626	    -16.33508601	      0.00000000	    -10.39647325	     -5.85447773	    -11.48604015
      3.94000000	     -1.40289281	      4.48789725	      0.90253837	     -0.41379297	      0.94873171	      0.20298429	     23.64508146	     -2.16893612	      0.72396922	    -46.61760686	     13.40550903	    -17.54901631	      0.00000000	      4.43131391	     11.37432963	      9.85873896	    -14.88851695	     16.02304271	    -16.74130112	      0.00000000	    -10.45769966	     -5.66304481	    -11.71487273
      3.94500000	     -1.38371215	      4.38331485	      1.14921244	     -0.40705655	      0.94898504	      0.20267809	     23.91320588	     -2.03308688	      0.97529745	    -44.89334830	     13.37421026	    -17.35859458	      0.00000000	      3.64473176	     11.27026364	     10.38102454	    -14.33617541	     15.93232862	    -17.17302702	      0.00000000	    -10.52112346	     -5.49529376	    -11.95476075
      3.95000000	     -1.37713004	      4.28837487	      1.39108750	     -0.40031238	      0.94911354	      0.20236619	     24.17095875	     -1.91853844	      1.24899660	    -43.12493282	     13.29861763	    -17.16957543	      0.00000000	      2.87810870	     11.17061553	     10.88976236	    -13.79414912	     15.85444341	    -17.60563844	      0.00000000	    -10.56675613	     -5.33199969	    -12.18777566
      3.95500000	     -1.37485897	      4.20170217	      1.62973358	     -0.39357858	      0.94913653	      0.20208925	     24.41086111	     -1.82307122	      1.53735681	    -41.31633173	     13.17728349	    -16.97317697	      0.00000000	      2.12141991	     11.07121330	     11.39658556	    -13.25855432	     15.77882865	    -18.05079418	      0.00000000	    -10.61089429	     -5.18769906	    -12.42359505
